<svg width="22" height="26" viewBox="0 0 22 26" fill="none" xmlns="http://www.w3.org/2000/svg">
<g id="_1" clip-path="url(#clip0_1_73)">
<g id="ro8wUm.tif">
<g id="Group">
<path id="Vector" d="M21.4961 21.3888C21.4518 23.6102 19.9534 25.2242 17.726 25.4589C17.4482 25.4883 17.1704 25.499 16.8926 25.499C14.9253 25.5 12.959 25.5 10.9926 25.5C9.02632 25.5 7.01075 25.499 5.01882 25.5C3.99921 25.5 3.03575 25.3014 2.18854 24.7028C1.23395 24.0279 0.663561 23.1005 0.560123 21.9551C0.371963 19.8726 0.618245 17.8282 1.40733 15.8807C1.87034 14.7382 2.56388 13.7522 3.69874 13.1448C4.42084 12.7574 5.19614 12.5892 6.00887 12.5755C6.28766 12.5716 6.53198 12.6929 6.76348 12.8366C7.12404 13.0606 7.47869 13.2934 7.84023 13.5155C9.94249 14.8076 12.0477 14.8096 14.152 13.5204C14.4445 13.3414 14.7411 13.1663 15.0159 12.9628C15.5183 12.5911 16.069 12.5324 16.669 12.6195C18.2993 12.8552 19.4579 13.7346 20.2381 15.149C20.9395 16.4197 21.237 17.8008 21.4005 19.2202C21.4833 19.9411 21.5109 20.6639 21.4961 21.3888Z" fill="#2B2B2B"/>
<path id="Vector_2" d="M16.9103 6.5265C16.8995 9.86108 14.215 12.5266 10.8478 12.5442C7.5053 12.5628 4.77157 9.84836 4.7765 6.51574C4.78044 3.1753 7.50235 0.483387 10.8587 0.500016C14.215 0.517623 16.9202 3.2115 16.9103 6.5265Z" fill="#2B2B2B"/>
</g>
</g>
</g>
<defs>
<clipPath id="clip0_1_73">
<rect width="21" height="25" fill="white" transform="translate(0.5 0.5)"/>
</clipPath>
</defs>
</svg>
